<?xml version="1.0" encoding="UTF-8" standalone="no"?>
<svg
   width="64"
   height="64"
   version="1.1"
   id="svg8"
   sodipodi:docname="app-launcher.svg"
   inkscape:version="1.4.2 (ebf0e940d0, 2025-05-08)"
   xmlns:inkscape="http://www.inkscape.org/namespaces/inkscape"
   xmlns:sodipodi="http://sodipodi.sourceforge.net/DTD/sodipodi-0.dtd"
   xmlns:xlink="http://www.w3.org/1999/xlink"
   xmlns="http://www.w3.org/2000/svg"
   xmlns:svg="http://www.w3.org/2000/svg">
  <defs
     id="defs8">
    <radialGradient
       id="SVGID_1_-3-2"
       cx="-159.43106"
       cy="15.462561"
       r="64.706802"
       gradientTransform="matrix(-0.89413329,0,0,0.96304834,-80.727499,49.278658)"
       gradientUnits="userSpaceOnUse"
       fx="-159.43106"
       fy="15.462561">
      <stop
         offset="0"
         style="stop-color:#006fff;stop-opacity:1;"
         id="stop1-6-9" />
      <stop
         offset="1"
         style="stop-color:#15baff;stop-opacity:1;"
         id="stop2-7-1" />
    </radialGradient>
    <radialGradient
       inkscape:collect="always"
       xlink:href="#linearGradient1"
       id="radialGradient2"
       cx="5.9836855"
       cy="44.458122"
       fx="5.9836855"
       fy="44.458122"
       r="20.631081"
       gradientUnits="userSpaceOnUse"
       gradientTransform="matrix(0,3.0646764,-3.0646768,0,136.5577,-18.132766)" />
    <linearGradient
       id="linearGradient1"
       inkscape:collect="always">
      <stop
         style="stop-color:#d2d2d2;stop-opacity:1;"
         offset="0"
         id="stop1" />
      <stop
         style="stop-color:#ffffff;stop-opacity:1;"
         offset="1"
         id="stop2" />
    </linearGradient>
    <filter
       inkscape:collect="always"
       style="color-interpolation-filters:sRGB"
       id="filter16"
       x="-0.079625777"
       y="-0.079625777"
       width="1.1592516"
       height="1.1592516">
      <feGaussianBlur
         inkscape:collect="always"
         stdDeviation="1.1369121"
         id="feGaussianBlur16" />
    </filter>
    <filter
       inkscape:collect="always"
       style="color-interpolation-filters:sRGB"
       id="filter4"
       x="-0.070802973"
       y="-0.070802978"
       width="1.1416059"
       height="1.141606">
      <feGaussianBlur
         inkscape:collect="always"
         stdDeviation="1.5895694"
         id="feGaussianBlur4" />
    </filter>
    <radialGradient
       id="SVGID_1_-3-2-3"
       cx="-159.43106"
       cy="15.462561"
       r="64.706802"
       gradientTransform="matrix(-0.89413329,0,0,0.96304834,-80.7275,49.278658)"
       gradientUnits="userSpaceOnUse"
       fx="-159.43106"
       fy="15.462561">
      <stop
         offset="0"
         style="stop-color:#006fff;stop-opacity:1;"
         id="stop1-6-9-6" />
      <stop
         offset="1"
         style="stop-color:#15baff;stop-opacity:1;"
         id="stop2-7-1-7" />
    </radialGradient>
  </defs>
  <sodipodi:namedview
     id="namedview8"
     pagecolor="#505050"
     bordercolor="#eeeeee"
     borderopacity="1"
     inkscape:showpageshadow="0"
     inkscape:pageopacity="0"
     inkscape:pagecheckerboard="0"
     inkscape:deskcolor="#505050"
     inkscape:zoom="12.926796"
     inkscape:cx="23.478362"
     inkscape:cy="34.888769"
     inkscape:current-layer="svg8"
     inkscape:window-width="3440"
     inkscape:window-height="1380"
     inkscape:window-x="0"
     inkscape:window-y="0"
     inkscape:window-maximized="1" />
  <path
     d="m 20.80078,3.9999999 c -9.299999,0 -16.8007815,7.5007811 -16.8007815,16.8007811 V 43.199219 C 3.9999985,52.499219 11.500781,60 20.80078,60 h 22.398438 c 9.3,0 16.800783,-7.500781 16.800783,-16.800781 V 20.800781 c 0,-9.3 -7.500783,-16.8007811 -16.800783,-16.8007811 z"
     style="fill:url(#SVGID_1_-3-2-3)"
     id="path3"
     sodipodi:nodetypes="sssssssss" />
  <path
     class="st1"
     d="m 20.8,4 h 22.4 c 9.3,0 16.800004,7.499999 16.800004,16.799999 v 22.4 c 0,9.3 -7.500004,16.8 -16.800004,16.8 H 20.8 c -9.3,0 -16.799999,-7.5 -16.799999,-16.8 v -22.4 C 4.000001,11.499999 11.5,4 20.8,4 Z"
     id="path2-2"
     style="opacity:0.673189;fill:none;stroke:#000000;stroke-width:0.3;stroke-dasharray:none;stroke-opacity:1;filter:url(#filter4)" />
  <path
     id="rect2-5-2-8"
     style="mix-blend-mode:normal;fill:none;fill-opacity:1;stroke:#000000;stroke-width:0.185143;stroke-dasharray:none;stroke-opacity:1;filter:url(#filter16)"
     d="m 14.931103,-17.063799 c 0,1.695847 1.365155,3.061002 3.061002,3.061002 h 4.080734 c 1.695847,0 3.061002,-1.365155 3.061002,-3.061002 v -4.080734 c 0,-1.695847 -1.365155,-3.061002 -3.061002,-3.061002 h -4.080734 c -1.695847,0 -3.061002,1.365155 -3.061002,3.061002 z m 0,-12.612848 c 0,1.695847 1.365155,3.061002 3.061002,3.061002 h 4.080734 c 1.695847,0 3.061002,-1.365155 3.061002,-3.061002 v -4.082542 c 0,-1.695847 -1.365155,-3.061002 -3.061002,-3.061002 h -4.080734 c -1.695847,0 -3.061002,1.365155 -3.061002,3.061002 z m 0,-12.614656 c 0,1.695847 1.365155,3.061002 3.061002,3.061002 h 4.080734 c 1.695847,0 3.061002,-1.365155 3.061002,-3.061002 v -4.080734 c 0,-1.695847 -1.365155,-3.061002 -3.061002,-3.061002 h -4.080734 c -1.695847,0 -3.061002,1.365155 -3.061002,3.061002 z m 12.612848,25.227504 c 0,1.695847 1.365155,3.061002 3.061002,3.061002 h 4.082542 c 1.695847,0 3.061002,-1.365155 3.061002,-3.061002 v -4.080734 c 0,-1.695847 -1.365155,-3.061002 -3.061002,-3.061002 h -4.082542 c -1.695847,0 -3.061002,1.365155 -3.061002,3.061002 z m 0,-12.612848 c 0,1.695847 1.365155,3.061002 3.061002,3.061002 h 4.082542 c 1.695847,0 3.061002,-1.365155 3.061002,-3.061002 v -4.082542 c 0,-1.695847 -1.365155,-3.061002 -3.061002,-3.061002 h -4.082542 c -1.695847,0 -3.061002,1.365155 -3.061002,3.061002 z m 0,-12.614656 c 0,1.695847 1.365155,3.061002 3.061002,3.061002 h 4.082542 c 1.695847,0 3.061002,-1.365155 3.061002,-3.061002 v -4.080734 c 0,-1.695847 -1.365155,-3.061002 -3.061002,-3.061002 h -4.082542 c -1.695847,0 -3.061002,1.365155 -3.061002,3.061002 z m 12.614656,25.227504 c 0,1.695847 1.365155,3.061002 3.061002,3.061002 h 4.080734 c 1.695847,0 3.061002,-1.365155 3.061002,-3.061002 v -4.080734 c 0,-1.695847 -1.365155,-3.061002 -3.061002,-3.061002 h -4.080734 c -1.695847,0 -3.061002,1.365155 -3.061002,3.061002 z m 0,-12.612848 c 0,1.695847 1.365155,3.061002 3.061002,3.061002 h 4.080734 c 1.695847,0 3.061002,-1.365155 3.061002,-3.061002 v -4.082542 c 0,-1.695847 -1.365155,-3.061002 -3.061002,-3.061002 h -4.080734 c -1.695847,0 -3.061002,1.365155 -3.061002,3.061002 z m 0,-12.614656 c 0,1.695847 1.365155,3.061002 3.061002,3.061002 h 4.080734 c 1.695847,0 3.061002,-1.365155 3.061002,-3.061002 v -4.080734 c 0,-1.695847 -1.365155,-3.061002 -3.061002,-3.061002 h -4.080734 c -1.695847,0 -3.061002,1.365155 -3.061002,3.061002 z"
     transform="matrix(0,1.0146384,-1.0146384,0,-0.1822173,-1.1241128)" />
  <path
     d="m 17.130859,14.025391 c -1.720672,0 -3.105468,1.384796 -3.105468,3.105468 v 4.140625 c 0,1.720671 1.384796,3.105469 3.105468,3.105469 h 4.140625 c 1.720671,0 3.105469,-1.384798 3.105469,-3.105469 v -4.140625 c 0,-1.720672 -1.384798,-3.105468 -3.105469,-3.105468 z m 12.798828,0 c -1.720671,0 -3.107421,1.384796 -3.107421,3.105468 v 4.140625 c 0,1.720671 1.386749,3.105469 3.107421,3.105469 h 4.140625 c 1.720672,0 3.107422,-1.384798 3.107422,-3.105469 v -4.140625 c 0,-1.720672 -1.386751,-3.105468 -3.107422,-3.105468 z m 12.798829,0 c -1.720671,0 -3.105469,1.384796 -3.105469,3.105468 v 4.140625 c 0,1.720671 1.384798,3.105469 3.105469,3.105469 h 4.140625 c 1.720672,0 3.105468,-1.384798 3.105468,-3.105469 v -4.140625 c 0,-1.720672 -1.384796,-3.105468 -3.105468,-3.105468 z M 17.130859,26.822266 c -1.720672,0 -3.105468,1.38675 -3.105468,3.107421 v 4.140625 c 0,1.720672 1.384796,3.107422 3.105468,3.107422 h 4.140625 c 1.720671,0 3.105469,-1.38675 3.105469,-3.107422 v -4.140625 c 0,-1.720671 -1.384798,-3.107421 -3.105469,-3.107421 z m 12.798828,0 c -1.720671,0 -3.107421,1.38675 -3.107421,3.107421 v 4.140625 c 0,1.720672 1.386749,3.107422 3.107421,3.107422 h 4.140625 c 1.720672,0 3.107422,-1.38675 3.107422,-3.107422 v -4.140625 c 0,-1.720671 -1.386751,-3.107421 -3.107422,-3.107421 z m 12.798829,0 c -1.720671,0 -3.105469,1.38675 -3.105469,3.107421 v 4.140625 c 0,1.720672 1.384798,3.107422 3.105469,3.107422 h 4.140625 c 1.720672,0 3.105468,-1.38675 3.105468,-3.107422 v -4.140625 c 0,-1.720671 -1.384796,-3.107421 -3.105468,-3.107421 z M 17.130859,39.623047 c -1.720672,0 -3.105468,1.384798 -3.105468,3.105469 v 4.140625 c 0,1.720672 1.384796,3.105468 3.105468,3.105468 h 4.140625 c 1.720671,0 3.105469,-1.384796 3.105469,-3.105468 v -4.140625 c 0,-1.720671 -1.384798,-3.105469 -3.105469,-3.105469 z m 12.798828,0 c -1.720671,0 -3.107421,1.384798 -3.107421,3.105469 v 4.140625 c 0,1.720672 1.386749,3.105468 3.107421,3.105468 h 4.140625 c 1.720672,0 3.107422,-1.384796 3.107422,-3.105468 v -4.140625 c 0,-1.720671 -1.386751,-3.105469 -3.107422,-3.105469 z m 12.798829,0 c -1.720671,0 -3.105469,1.384798 -3.105469,3.105469 v 4.140625 c 0,1.720672 1.384798,3.105468 3.105469,3.105468 h 4.140625 c 1.720672,0 3.105468,-1.384796 3.105468,-3.105468 v -4.140625 c 0,-1.720671 -1.384796,-3.105469 -3.105468,-3.105469 z"
     style="opacity:0.964412;fill:url(#radialGradient2);stroke-width:0.2"
     id="path4" />
</svg>
