<?xml version="1.0" encoding="UTF-8" standalone="no"?>
<svg
   width="64"
   height="64"
   version="1.1"
   id="svg4"
   sodipodi:docname="floorp.svg"
   inkscape:version="1.4.2 (ebf0e940d0, 2025-05-08)"
   xml:space="preserve"
   xmlns:inkscape="http://www.inkscape.org/namespaces/inkscape"
   xmlns:sodipodi="http://sodipodi.sourceforge.net/DTD/sodipodi-0.dtd"
   xmlns:xlink="http://www.w3.org/1999/xlink"
   xmlns="http://www.w3.org/2000/svg"
   xmlns:svg="http://www.w3.org/2000/svg"><defs
     id="defs4"><linearGradient
       id="linearGradient4"
       inkscape:collect="always"><stop
         style="stop-color:#3d46ff;stop-opacity:1;"
         offset="0"
         id="stop3" /><stop
         style="stop-color:#ac46ff;stop-opacity:1;"
         offset="1"
         id="stop4" /></linearGradient><inkscape:path-effect
       effect="fillet_chamfer"
       id="path-effect2"
       is_visible="true"
       lpeversion="1"
       nodesatellites_param="F,0,0,1,0,0,0,1 @ F,0,0,1,0,0,0,1 @ F,0,0,1,0,0,0,1 @ F,0,0,1,0,0,0,1 @ F,0,0,1,0,0,0,1 @ F,0,0,1,0,1.3262556,0,1 @ F,0,0,1,0,0.59839414,0,1 @ F,0,1,1,0,0.59065941,0,1 @ F,0,0,1,0,0.59065941,0,1 @ F,0,0,1,0,0.59839414,0,1 @ F,0,0,1,0,0.59839414,0,1 @ F,0,0,1,0,1.5919969,0,1 @ F,0,0,1,0,0,0,1 @ F,0,0,1,0,0,0,1 @ F,0,0,1,0,0,0,1 @ F,0,0,1,0,0,0,1"
       radius="0"
       unit="px"
       method="auto"
       mode="F"
       chamfer_steps="1"
       flexible="false"
       use_knot_distance="true"
       apply_no_radius="true"
       apply_with_radius="true"
       only_selected="false"
       hide_knots="false" /><inkscape:path-effect
       effect="fillet_chamfer"
       id="path-effect1"
       is_visible="true"
       lpeversion="1"
       nodesatellites_param="F,0,1,1,0,3.6701165,0,1 @ F,0,1,1,0,3.6701165,0,1 @ F,0,1,1,0,3.6701165,0,1 @ F,0,1,1,0,3.6701165,0,1 @ F,0,1,1,0,3.6701165,0,1 @ F,0,0,1,0,3.6701165,0,1"
       radius="0"
       unit="px"
       method="auto"
       mode="F"
       chamfer_steps="1"
       flexible="false"
       use_knot_distance="true"
       apply_no_radius="true"
       apply_with_radius="true"
       only_selected="false"
       hide_knots="false" /><inkscape:path-effect
       effect="fillet_chamfer"
       id="path-effect4"
       is_visible="true"
       lpeversion="1"
       nodesatellites_param="F,0,0,1,0,0,0,1 @ F,0,0,1,0,0,0,1 @ F,0,0,1,0,0,0,1 @ F,0,0,1,0,0,0,1 @ F,0,0,1,0,0,0,1 @ F,0,0,1,0,0,0,1 @ F,0,0,1,0,0,0,1 @ F,0,0,1,0,0,0,1 | F,0,0,1,0,0,0,1 @ F,0,0,1,0,0,0,1 @ F,0,0,1,0,0,0,1 @ F,0,0,1,0,0,0,1 @ F,0,0,1,0,0,0,1 @ F,0,0,1,0,1.5592809,0,1 @ F,0,0,1,0,1.5592809,0,1 @ F,0,0,1,0,0,0,1 @ F,0,0,1,0,0,0,1 @ F,0,0,1,0,0,0,1 @ F,0,0,1,0,0,0,1 @ F,0,0,1,0,0,0,1 @ F,0,0,1,0,0,0,1 @ F,0,0,1,0,1.5592809,0,1 @ F,0,0,1,0,1.5592809,0,1 @ F,0,0,1,0,0,0,1 | F,0,0,1,0,0,0,1 @ F,0,0,1,0,0,0,1 @ F,0,0,1,0,0,0,1 @ F,0,0,1,0,0,0,1 @ F,0,0,1,0,0,0,1 @ F,0,0,1,0,1.5592809,0,1 @ F,0,0,1,0,1.5592809,0,1 @ F,0,0,1,0,0,0,1 @ F,0,0,1,0,0,0,1 @ F,0,0,1,0,0,0,1 @ F,0,0,1,0,0,0,1 @ F,0,0,1,0,0,0,1 @ F,0,0,1,0,0,0,1 @ F,0,0,1,0,1.5592809,0,1 @ F,0,0,1,0,1.5592809,0,1 @ F,0,0,1,0,0,0,1 | F,0,0,1,0,0,0,1 @ F,0,0,1,0,0,0,1 @ F,0,0,1,0,0,0,1 @ F,0,0,1,0,0,0,1 @ F,0,0,1,0,0,0,1 @ F,0,0,1,0,0,0,1 @ F,0,0,1,0,0,0,1 @ F,0,0,1,0,0,0,1 | F,0,0,1,0,0,0,1 @ F,0,0,1,0,0,0,1 @ F,0,0,1,0,1.5592809,0,1 @ F,0,0,1,0,1.5592809,0,1 @ F,0,0,1,0,1.3288755,0,1 @ F,0,0,1,0,1.5592809,0,1 @ F,0,0,1,0,1.5592809,0,1 @ F,0,0,1,0,1.3288755,0,1 @ F,0,0,1,0,1.3288755,0,1 @ F,0,0,1,0,1.5592809,0,1 @ F,0,0,1,0,1.5592809,0,1 | F,0,0,1,0,1.5592809,0,1 @ F,0,0,1,0,1.5592809,0,1 @ F,0,1,1,0,1.2768875,0,1 @ F,0,0,1,0,1.5592809,0,1 @ F,0,0,1,0,1.5592809,0,1 @ F,0,0,1,0,1.2768875,0,1 @ F,0,0,1,0,1.5592809,0,1 @ F,0,0,1,0,1.5592809,0,1"
       radius="0"
       unit="px"
       method="auto"
       mode="F"
       chamfer_steps="1"
       flexible="false"
       use_knot_distance="true"
       apply_no_radius="true"
       apply_with_radius="true"
       only_selected="false"
       hide_knots="false" /><inkscape:path-effect
       effect="fillet_chamfer"
       id="path-effect4-3"
       is_visible="true"
       lpeversion="1"
       nodesatellites_param="F,0,0,1,0,0,0,1 @ F,0,0,1,0,0,0,1 @ F,0,0,1,0,0,0,1 @ F,0,0,1,0,0,0,1 @ F,0,0,1,0,0,0,1 @ F,0,0,1,0,0,0,1 @ F,0,0,1,0,0,0,1 @ F,0,0,1,0,0,0,1 | F,0,0,1,0,0,0,1 @ F,0,0,1,0,0,0,1 @ F,0,0,1,0,0,0,1 @ F,0,0,1,0,0,0,1 @ F,0,0,1,0,0,0,1 @ F,0,0,1,0,1.5592809,0,1 @ F,0,0,1,0,1.5592809,0,1 @ F,0,0,1,0,0,0,1 @ F,0,0,1,0,0,0,1 @ F,0,0,1,0,0,0,1 @ F,0,0,1,0,0,0,1 @ F,0,0,1,0,0,0,1 @ F,0,0,1,0,0,0,1 @ F,0,0,1,0,1.5592809,0,1 @ F,0,0,1,0,1.5592809,0,1 @ F,0,0,1,0,0,0,1 | F,0,0,1,0,0,0,1 @ F,0,0,1,0,0,0,1 @ F,0,0,1,0,0,0,1 @ F,0,0,1,0,0,0,1 @ F,0,0,1,0,0,0,1 @ F,0,0,1,0,1.5592809,0,1 @ F,0,0,1,0,1.5592809,0,1 @ F,0,0,1,0,0,0,1 @ F,0,0,1,0,0,0,1 @ F,0,0,1,0,0,0,1 @ F,0,0,1,0,0,0,1 @ F,0,0,1,0,0,0,1 @ F,0,0,1,0,0,0,1 @ F,0,0,1,0,1.5592809,0,1 @ F,0,0,1,0,1.5592809,0,1 @ F,0,0,1,0,0,0,1 | F,0,0,1,0,0,0,1 @ F,0,0,1,0,0,0,1 @ F,0,0,1,0,0,0,1 @ F,0,0,1,0,0,0,1 @ F,0,0,1,0,0,0,1 @ F,0,0,1,0,0,0,1 @ F,0,0,1,0,0,0,1 @ F,0,0,1,0,0,0,1 | F,0,0,1,0,0,0,1 @ F,0,0,1,0,0,0,1 @ F,0,0,1,0,1.5592809,0,1 @ F,0,0,1,0,1.5592809,0,1 @ F,0,0,1,0,1.3288755,0,1 @ F,0,0,1,0,1.5592809,0,1 @ F,0,0,1,0,1.5592809,0,1 @ F,0,0,1,0,1.3288755,0,1 @ F,0,0,1,0,1.3288755,0,1 @ F,0,0,1,0,1.5592809,0,1 @ F,0,0,1,0,1.5592809,0,1 | F,0,0,1,0,1.5592809,0,1 @ F,0,0,1,0,1.5592809,0,1 @ F,0,1,1,0,1.2768875,0,1 @ F,0,0,1,0,1.5592809,0,1 @ F,0,0,1,0,1.5592809,0,1 @ F,0,0,1,0,1.2768875,0,1 @ F,0,0,1,0,1.5592809,0,1 @ F,0,0,1,0,1.5592809,0,1"
       radius="0"
       unit="px"
       method="auto"
       mode="F"
       chamfer_steps="1"
       flexible="false"
       use_knot_distance="true"
       apply_no_radius="true"
       apply_with_radius="true"
       only_selected="false"
       hide_knots="false" /><inkscape:path-effect
       effect="fillet_chamfer"
       id="path-effect1-1"
       is_visible="true"
       lpeversion="1"
       nodesatellites_param="F,0,1,1,0,3.6701165,0,1 @ F,0,1,1,0,3.6701165,0,1 @ F,0,1,1,0,3.6701165,0,1 @ F,0,1,1,0,3.6701165,0,1 @ F,0,1,1,0,3.6701165,0,1 @ F,0,0,1,0,3.6701165,0,1"
       radius="0"
       unit="px"
       method="auto"
       mode="F"
       chamfer_steps="1"
       flexible="false"
       use_knot_distance="true"
       apply_no_radius="true"
       apply_with_radius="true"
       only_selected="false"
       hide_knots="false" /><inkscape:path-effect
       effect="fillet_chamfer"
       id="path-effect1-0"
       is_visible="true"
       lpeversion="1"
       nodesatellites_param="F,0,1,1,0,2.3232367,0,1 @ F,0,1,1,0,2.3232367,0,1 @ F,0,1,1,0,2.3232367,0,1 @ F,0,1,1,0,2.3232367,0,1 @ F,0,1,1,0,2.3232367,0,1 @ F,0,1,1,0,2.3232367,0,1"
       radius="0"
       unit="px"
       method="auto"
       mode="F"
       chamfer_steps="1"
       flexible="false"
       use_knot_distance="true"
       apply_no_radius="true"
       apply_with_radius="true"
       only_selected="false"
       hide_knots="false" /><radialGradient
       inkscape:collect="always"
       xlink:href="#linearGradient4"
       id="radialGradient3"
       cx="22.025406"
       cy="35.470406"
       fx="22.025406"
       fy="35.470406"
       r="18.282478"
       gradientTransform="matrix(1.6111304,-1.6111304,1.4703312,1.4703312,-65.613641,17.08713)"
       gradientUnits="userSpaceOnUse" /><inkscape:path-effect
       effect="fillet_chamfer"
       id="path-effect1-0-2"
       is_visible="true"
       lpeversion="1"
       nodesatellites_param="F,0,1,1,0,2.3132463,0,1 @ F,0,1,1,0,2.3132463,0,1 @ F,0,1,1,0,2.3132463,0,1 @ F,0,1,1,0,2.3132463,0,1 @ F,0,1,1,0,2.3132463,0,1 @ F,0,1,1,0,2.3132463,0,1"
       radius="0"
       unit="px"
       method="auto"
       mode="F"
       chamfer_steps="1"
       flexible="false"
       use_knot_distance="true"
       apply_no_radius="true"
       apply_with_radius="true"
       only_selected="false"
       hide_knots="false" /><filter
       inkscape:collect="always"
       style="color-interpolation-filters:sRGB"
       id="filter4"
       x="-0.069104735"
       y="-0.077229236"
       width="1.1382095"
       height="1.1544585"><feGaussianBlur
         inkscape:collect="always"
         stdDeviation="1.0465236"
         id="feGaussianBlur4" /></filter><inkscape:path-effect
       effect="fillet_chamfer"
       id="path-effect2-8"
       is_visible="true"
       lpeversion="1"
       nodesatellites_param="F,0,0,1,0,0,0,1 @ F,0,0,1,0,0,0,1 @ F,0,0,1,0,0,0,1 @ F,0,0,1,0,0,0,1 @ F,0,0,1,0,0,0,1 @ F,0,0,1,0,1.3262556,0,1 @ F,0,0,1,0,1.5327334,0,1 @ F,0,0,1,0,1.1014022,0,1 @ F,0,1,1,0,1.1014022,0,1 @ F,0,0,1,0,1.5327334,0,1 @ F,0,0,1,0,1.5327334,0,1 @ F,0,0,1,0,1.5919969,0,1 @ F,0,0,1,0,0,0,1 @ F,0,0,1,0,0,0,1 @ F,0,0,1,0,0,0,1 @ F,0,0,1,0,0,0,1"
       radius="0"
       unit="px"
       method="auto"
       mode="F"
       chamfer_steps="1"
       flexible="false"
       use_knot_distance="true"
       apply_no_radius="true"
       apply_with_radius="true"
       only_selected="false"
       hide_knots="false" /><inkscape:path-effect
       effect="fillet_chamfer"
       id="path-effect2-2"
       is_visible="true"
       lpeversion="1"
       nodesatellites_param="F,0,0,1,0,0,0,1 @ F,0,0,1,0,0,0,1 @ F,0,0,1,0,0,0,1 @ F,0,0,1,0,0,0,1 @ F,0,0,1,0,0,0,1 @ F,0,0,1,0,1.3262556,0,1 @ F,0,0,1,0,0.59839414,0,1 @ F,0,0,1,0,1.1014022,0,1 @ F,0,0,1,0,1.1014022,0,1 @ F,0,1,1,0,0.59839414,0,1 @ F,0,1,1,0,0.59839414,0,1 @ F,0,0,1,0,1.5919969,0,1 @ F,0,0,1,0,0,0,1 @ F,0,0,1,0,0,0,1 @ F,0,0,1,0,0,0,1 @ F,0,0,1,0,0,0,1"
       radius="0"
       unit="px"
       method="auto"
       mode="F"
       chamfer_steps="1"
       flexible="false"
       use_knot_distance="true"
       apply_no_radius="true"
       apply_with_radius="true"
       only_selected="false"
       hide_knots="false" /><filter
       inkscape:collect="always"
       style="color-interpolation-filters:sRGB"
       id="filter5"
       x="-0.068828571"
       y="-0.075666695"
       width="1.1376342"
       height="1.151331"><feGaussianBlur
         inkscape:collect="always"
         stdDeviation="1.010598"
         id="feGaussianBlur5" /></filter><inkscape:path-effect
       effect="fillet_chamfer"
       id="path-effect1-3"
       is_visible="true"
       lpeversion="1"
       nodesatellites_param="F,0,1,1,0,2.1844276,0,1 @ F,0,1,1,0,2.1844276,0,1 @ F,0,1,1,0,2.1844276,0,1 @ F,0,1,1,0,2.1844276,0,1 @ F,0,1,1,0,2.1844276,0,1 @ F,0,0,1,0,2.1844276,0,1"
       radius="0"
       unit="px"
       method="auto"
       mode="F"
       chamfer_steps="1"
       flexible="false"
       use_knot_distance="true"
       apply_no_radius="true"
       apply_with_radius="true"
       only_selected="false"
       hide_knots="false" /><filter
       inkscape:collect="always"
       style="color-interpolation-filters:sRGB"
       id="filter6"
       x="-0.094463247"
       y="-0.10576291"
       width="1.1889265"
       height="1.2115258"><feGaussianBlur
         inkscape:collect="always"
         stdDeviation="1.4705225"
         id="feGaussianBlur6" /></filter></defs><sodipodi:namedview
     id="namedview4"
     pagecolor="#505050"
     bordercolor="#eeeeee"
     borderopacity="1"
     inkscape:showpageshadow="0"
     inkscape:pageopacity="0"
     inkscape:pagecheckerboard="0"
     inkscape:deskcolor="#505050"
     inkscape:zoom="16.649027"
     inkscape:cx="46.459171"
     inkscape:cy="27.839465"
     inkscape:window-width="2346"
     inkscape:window-height="1407"
     inkscape:window-x="0"
     inkscape:window-y="0"
     inkscape:window-maximized="0"
     inkscape:current-layer="svg4" /><path
     id="path1-3"
     style="opacity:1;fill:url(#radialGradient3);stroke-width:0.4"
     transform="matrix(1.5087199,0,0,1.5087199,-4.7096961,8.1070519)"
     d="m 31.641388,32.521314 -14.619409,-10e-7 A 4.023964,4.023964 30.000003 0 1 13.537124,30.509331 L 6.2274199,17.848551 a 4.0239639,4.0239639 90.000003 0 1 2e-7,-4.023964 L 13.537126,1.1638076 a 4.0239641,4.0239641 150 0 1 3.484855,-2.01198184 l 14.619408,7.2e-7 a 4.0239641,4.0239641 30.000002 0 1 3.484855,2.01198212 l 7.309705,12.6607804 a 4.0239639,4.0239639 90.000002 0 1 0,4.023964 l -7.309706,12.660779 a 4.023964,4.023964 150 0 1 -3.484855,2.011982 z"
     inkscape:path-effect="#path-effect1-0"
     inkscape:original-d="m 33.964625,32.521314 -19.265883,-10e-7 -9.6329404,-16.684744 9.6329424,-16.68474335 19.265882,9.4e-7 9.632941,16.68474441 z" /><path
     id="path1"
     style="opacity:0.28011161;stroke-width:0.4"
     transform="matrix(0.98735627,0,0,0.98735627,7.9759592,16.363663)"
     d="m 30.294509,32.521314 -11.925651,-10e-7 A 6.3568283,6.3568283 30.000003 0 1 12.863684,29.342899 L 6.9008597,19.014983 a 6.3568282,6.3568282 90.000003 0 1 3e-7,-6.356828 L 12.863686,2.3302397 a 6.3568283,6.3568283 150 0 1 5.505174,-3.17841387 l 11.925649,5.8e-7 a 6.3568284,6.3568284 30.000002 0 1 5.505175,3.17841439 l 5.962825,10.3279162 a 6.3568281,6.3568281 90.000002 0 1 0,6.356828 L 35.799683,29.3429 a 6.3568282,6.3568282 150 0 1 -5.505174,3.178414 z"
     inkscape:path-effect="#path-effect1"
     inkscape:original-d="m 33.964625,32.521314 -19.265883,-10e-7 -9.6329404,-16.684744 9.6329424,-16.68474335 19.265882,9.4e-7 9.632941,16.68474441 z" /><path
     id="path1-5"
     style="opacity:0.4140625;stroke-width:0.4;filter:url(#filter6)"
     transform="matrix(0.96727391,0,0,0.96727391,8.4645973,16.681699)"
     d="m 31.780197,32.521314 -14.897027,-10e-7 a 3.7835396,3.7835396 30.000003 0 1 -3.276642,-1.89177 L 6.1580153,17.728339 a 3.7835395,3.7835395 90.000003 0 1 2e-7,-3.78354 L 13.60653,1.0435954 a 3.7835396,3.7835396 150 0 1 3.276642,-1.89176964 l 14.897026,7.2e-7 A 3.7835397,3.7835397 30.000002 0 1 35.05684,1.0435964 l 7.448513,12.9012046 a 3.7835395,3.7835395 90.000002 0 1 0,3.78354 l -7.448514,12.901203 a 3.7835396,3.7835396 150 0 1 -3.276642,1.89177 z"
     inkscape:path-effect="#path-effect1-3"
     inkscape:original-d="m 33.964625,32.521314 -19.265883,-10e-7 -9.6329404,-16.684744 9.6329424,-16.68474335 19.265882,9.4e-7 9.632941,16.68474441 z" /><path
     id="path1-3-1"
     style="opacity:1;mix-blend-mode:normal;fill:none;stroke:#000000;stroke-width:0.130887;stroke-dasharray:none;stroke-opacity:1;filter:url(#filter4)"
     transform="matrix(1.5087199,0,0,1.5087199,-4.7096957,8.1070524)"
     d="m 31.651379,32.521314 -14.639391,-10e-7 a 4.0066601,4.0066601 30.000003 0 1 -3.469869,-2.00333 L 6.2224247,17.839899 a 4.0066601,4.0066601 90.000003 0 1 2e-7,-4.00666 L 13.542121,1.1551556 a 4.0066602,4.0066602 150 0 1 3.469869,-2.00332984 l 14.63939,7.2e-7 a 4.0066602,4.0066602 30.000002 0 1 3.469869,2.00333022 l 7.319695,12.6780843 a 4.00666,4.00666 90.000002 0 1 0,4.00666 l -7.319696,12.678083 a 4.0066601,4.0066601 150 0 1 -3.469869,2.00333 z"
     inkscape:path-effect="#path-effect1-0-2"
     inkscape:original-d="m 33.964625,32.521314 -19.265883,-10e-7 -9.6329404,-16.684744 9.6329424,-16.68474335 19.265882,9.4e-7 9.632941,16.68474441 z" /><path
     id="path1-7"
     style="opacity:1;fill:#ffffff;fill-opacity:1;stroke-width:0.4"
     d="m 18.368202,-0.84753865 c -2.270423,2.3981e-4 -4.368356,1.21137517 -5.503925,3.17741255 L 6.9007942,12.657362 c -1.1361492,1.967213 -1.1361492,4.391203 0,6.358416 l 5.9634828,10.327488 c 1.190876,2.061791 2.992977,2.809406 4.400035,3.060751 0.720079,0.128628 1.319308,-0.477123 1.319308,-1.209594 V 20.317732 a 0.59839414,0.59839414 135 0 1 0.598394,-0.598394 h 21.158059 c 0.326212,0 0.724188,-0.228364 0.878191,-0.51592 1.041643,-1.944961 1.55331,-3.847785 0.673973,-5.801983 -0.133799,-0.29735 -0.53413,-0.525203 -0.860342,-0.525203 l -21.849881,0 A 0.59839414,0.59839414 45 0 1 18.58362,12.277838 V 6.593961 A 0.59839414,0.59839414 135 0 1 19.182014,5.9955669 H 36.323575 A 0.91912004,0.91912004 119.99947 0 0 37.119548,4.616872 L 35.799092,2.3298739 C 34.679708,0.39133112 32.623216,-0.81556255 30.384925,-0.84753865 H 30.295168 18.58362 Z"
     transform="matrix(1.0742456,0,0,1.0742456,5.8617949,14.987634)"
     inkscape:path-effect="#path-effect2"
     inkscape:original-d="m 18.368202,-0.84753865 c -2.270423,2.3981e-4 -4.368356,1.21137517 -5.503925,3.17741255 L 6.9007942,12.657362 c -1.1361492,1.967213 -1.1361492,4.391203 0,6.358416 l 5.9634828,10.327488 c 1.619681,2.804192 4.370011,3.177413 5.719343,3.177413 V 19.719338 h 22.347112 c 1.328889,-2.300009 2.028196,-4.530142 0.691822,-6.843106 H 18.58362 V 5.9955669 h 19.331952 l -2.11648,-3.665693 C 34.679708,0.39133112 32.623216,-0.81556255 30.384925,-0.84753865 H 30.295168 18.58362 Z"
     sodipodi:nodetypes="ccccccccccccccccc" /><path
     id="path1-7-2"
     style="fill:none;fill-opacity:1;stroke:#0a0087;stroke-width:0.183823;stroke-dasharray:none;stroke-opacity:1;filter:url(#filter5)"
     d="m 18.368202,-0.84753865 c -2.270423,2.3981e-4 -4.368356,1.21137517 -5.503925,3.17741255 L 6.9007942,12.657362 c -1.1361492,1.967213 -1.1361492,4.391203 0,6.358416 l 5.9634828,10.327488 c 1.190876,2.061791 2.992977,2.809406 4.400035,3.060751 0.720079,0.128628 1.319308,-0.477123 1.319308,-1.209594 V 19.856517 a 0.59839414,0.59839414 135 0 1 0.598394,-0.598394 h 21.339138 c 0.608287,0 1.358052,-0.424246 1.591465,-0.985506 0.677859,-1.629962 0.680578,-3.235469 -1.4e-5,-4.872088 -0.233402,-0.561264 -0.983164,-0.985512 -1.591451,-0.985512 H 19.182014 A 0.59839414,0.59839414 45 0 1 18.58362,11.816623 V 6.593961 A 0.59839414,0.59839414 135 0 1 19.182014,5.9955669 H 36.323575 A 0.91912004,0.91912004 119.99947 0 0 37.119548,4.616872 L 35.799092,2.3298739 C 34.679708,0.39133112 32.623216,-0.81556255 30.384925,-0.84753865 H 30.295168 18.58362 Z"
     transform="matrix(1.0742456,0,0,1.0742456,5.8617949,14.987634)"
     inkscape:path-effect="#path-effect2-2"
     inkscape:original-d="m 18.368202,-0.84753865 c -2.270423,2.3981e-4 -4.368356,1.21137517 -5.503925,3.17741255 L 6.9007942,12.657362 c -1.1361492,1.967213 -1.1361492,4.391203 0,6.358416 l 5.9634828,10.327488 c 1.619681,2.804192 4.370011,3.177413 5.719343,3.177413 V 19.258123 h 23.038934 c 1.328889,-2.300009 1.336374,-4.530142 0,-6.843106 H 18.58362 V 5.9955669 h 19.331952 l -2.11648,-3.665693 C 34.679708,0.39133112 32.623216,-0.81556255 30.384925,-0.84753865 H 30.295168 18.58362 Z"
     sodipodi:nodetypes="ccccccccccccccccc" /></svg>
