<?xml version="1.0" encoding="UTF-8" standalone="no"?>
<svg
   width="64"
   height="64"
   version="1"
   id="svg5"
   sodipodi:docname="yast-firewall.svg"
   inkscape:version="1.4.2 (ebf0e940d0, 2025-05-08)"
   xmlns:inkscape="http://www.inkscape.org/namespaces/inkscape"
   xmlns:sodipodi="http://sodipodi.sourceforge.net/DTD/sodipodi-0.dtd"
   xmlns:xlink="http://www.w3.org/1999/xlink"
   xmlns="http://www.w3.org/2000/svg"
   xmlns:svg="http://www.w3.org/2000/svg">
  <defs
     id="defs5">
    <radialGradient
       id="radialGradient2"
       cx="-159.43106"
       cy="15.462561"
       r="64.706802"
       gradientTransform="matrix(-0.89413329,0,0,0.96304834,-142.52548,48.016032)"
       gradientUnits="userSpaceOnUse"
       fx="-159.43106"
       fy="15.462561">
	<stop
   offset="0"
   style="stop-color:#5fa4ff;stop-opacity:1;"
   id="stop1" />

	<stop
   offset="1"
   style="stop-color:#5acfff;stop-opacity:1;"
   id="stop2" />

</radialGradient>
    <linearGradient
       id="linearGradient5"
       inkscape:collect="always">
      <stop
         style="stop-color:#5ee2f6;stop-opacity:1;"
         offset="0"
         id="stop5" />
      <stop
         style="stop-color:#875ef6;stop-opacity:1;"
         offset="1"
         id="stop6" />
    </linearGradient>
    <radialGradient
       inkscape:collect="always"
       xlink:href="#linearGradient5"
       id="radialGradient1"
       cx="52.953053"
       cy="114.39207"
       fx="52.953053"
       fy="114.39207"
       r="151.4955"
       gradientTransform="matrix(0.90426906,1.54249,-1.8509192,1.0524244,216.79972,-97.822177)"
       gradientUnits="userSpaceOnUse" />
    <filter
       inkscape:collect="always"
       style="color-interpolation-filters:sRGB"
       id="filter11"
       x="-0.058216179"
       y="-0.050555128"
       width="1.1164324"
       height="1.1011103">
      <feGaussianBlur
         inkscape:collect="always"
         stdDeviation="1.0638153"
         id="feGaussianBlur11" />
    </filter>
    <radialGradient
       inkscape:collect="always"
       xlink:href="#radialGradient2"
       id="radialGradient9-8"
       cx="47.950642"
       cy="45.898148"
       fx="47.950642"
       fy="45.898148"
       r="20"
       gradientTransform="matrix(0,-3.1381277,3.1396555,0,-80.656603,213.05513)"
       gradientUnits="userSpaceOnUse" />
    <radialGradient
       inkscape:collect="always"
       xlink:href="#SVGID_1_-3-2"
       id="radialGradient9"
       cx="47.950642"
       cy="45.898148"
       fx="47.950642"
       fy="45.898148"
       r="20"
       gradientTransform="matrix(0,-4.0234745,4.0254334,0,-112.43992,264.13545)"
       gradientUnits="userSpaceOnUse" />
    <radialGradient
       id="SVGID_1_-3-2"
       cx="-159.43106"
       cy="15.462561"
       r="64.706802"
       gradientTransform="matrix(-0.89413329,0,0,0.96304834,-142.52548,48.016032)"
       gradientUnits="userSpaceOnUse"
       fx="-159.43106"
       fy="15.462561">
	<stop
   offset="0"
   style="stop-color:#006fff;stop-opacity:1;"
   id="stop1-6-9" />

	<stop
   offset="1"
   style="stop-color:#15baff;stop-opacity:1;"
   id="stop2-7-1" />

</radialGradient>
  </defs>
  <sodipodi:namedview
     id="namedview5"
     pagecolor="#505050"
     bordercolor="#eeeeee"
     borderopacity="1"
     inkscape:showpageshadow="0"
     inkscape:pageopacity="0"
     inkscape:pagecheckerboard="0"
     inkscape:deskcolor="#505050"
     inkscape:zoom="9.5136833"
     inkscape:cx="28.905734"
     inkscape:cy="36.158446"
     inkscape:window-width="1920"
     inkscape:window-height="1024"
     inkscape:window-x="0"
     inkscape:window-y="0"
     inkscape:window-maximized="1"
     inkscape:current-layer="svg5" />
  <g
     id="g2">
    <path
       d="M 28.376694,3.8714708 C 23.310746,6.3617336 17.655708,8.4286316 12.15341,10.611594 c -2.904454,1.152301 -5.230283,4.690995 -5.230283,7.8164 v 13.702054 c 0,18.130078 20.412073,28.747876 25.076873,28.747876 4.6648,0 25.076873,-10.617798 25.076873,-28.747876 V 18.427994 c 0,-3.125405 -2.337464,-6.637291 -5.245941,-7.781167 C 46.314316,8.4771926 40.655675,6.3637686 35.620432,3.875132 33.589606,2.8714089 30.41008,2.8719214 28.376694,3.871492 Z"
       style="fill:url(#radialGradient9);fill-rule:evenodd;stroke-width:1.25385"
       id="path3"
       sodipodi:nodetypes="ccssscc" />
    <path
       d="m 29.173984,10.061026 c -3.951208,1.942292 -8.361881,3.554379 -12.653425,5.256989 -2.265342,0.898744 -4.079383,3.658764 -4.079383,6.096438 v 10.686982 c 0,14.140639 15.920489,22.42204 19.558824,22.42204 3.638333,0 19.558824,-8.281401 19.558824,-22.42204 V 21.414453 c 0,-2.437674 -1.823115,-5.176785 -4.091595,-6.068956 C 43.164517,13.65328 38.751034,12.004906 34.823772,10.063881 33.23982,9.2810235 30.759934,9.2814225 29.173984,10.060981 Z"
       style="fill:url(#radialGradient9-8);fill-rule:evenodd;stroke-width:0.977944"
       id="path3-5"
       sodipodi:nodetypes="ccssscc" />
    <path
       id="path3-6"
       style="mix-blend-mode:normal;fill:none;fill-rule:evenodd;stroke:#000000;stroke-width:0.2;stroke-dasharray:none;stroke-opacity:1;filter:url(#filter11)"
       d="m 32,5.7597657 c -1.183932,-3.54e-4 -2.369116,0.225537 -3.292969,0.679688 -4.603346,2.262862 -9.742337,4.1413773 -14.742187,6.1250003 -2.639232,1.047078 -4.7519535,4.263509 -4.7519535,7.103515 v 12.451172 c 0,16.474515 18.5482785,26.121094 22.7871095,26.121094 4.23883,0 22.787109,-9.646579 22.787109,-26.121094 V 19.667969 c 0,-2.840006 -2.124691,-6.03089 -4.767578,-7.070312 C 45.006669,10.626145 39.864508,8.7047447 35.289062,6.4433597 34.366372,5.9873267 33.183931,5.7601207 32,5.7597657 Z m 0,5.7734383 c 0.923414,2.79e-4 1.84675,0.177517 2.566406,0.533203 3.568641,1.763778 7.578475,3.26309 11.488281,4.800781 2.061332,0.810702 3.71875,3.298596 3.71875,5.513672 v 9.710938 c 0,12.849375 -14.467342,20.375 -17.773437,20.375 -3.306098,0 -17.773437,-7.525625 -17.773437,-20.375 V 22.38086 c 0,-2.215076 1.64855,-4.722389 3.70703,-5.539063 3.899659,-1.547136 7.907647,-3.012413 11.498047,-4.777343 0.720565,-0.354204 1.644946,-0.53153 2.56836,-0.53125 z"
       transform="matrix(1.1004924,0,0,1.1004924,-3.2157582,-3.2157593)" />
  </g>
</svg>
