<?xml version="1.0" encoding="UTF-8" standalone="no"?>
<svg
   width="64"
   height="64"
   version="1"
   id="svg4"
   sodipodi:docname="xfsm-switch-user.svg"
   inkscape:version="1.4.2 (ebf0e940d0, 2025-05-08)"
   xmlns:inkscape="http://www.inkscape.org/namespaces/inkscape"
   xmlns:sodipodi="http://sodipodi.sourceforge.net/DTD/sodipodi-0.dtd"
   xmlns:xlink="http://www.w3.org/1999/xlink"
   xmlns="http://www.w3.org/2000/svg"
   xmlns:svg="http://www.w3.org/2000/svg">
  <defs
     id="defs4">
    <inkscape:path-effect
       effect="fillet_chamfer"
       id="path-effect4"
       is_visible="true"
       lpeversion="1"
       nodesatellites_param="F,0,1,1,0,3.1906851,0,1 @ F,0,1,1,0,3.1906851,0,1 @ F,0,0,1,0,0,0,1 @ F,0,0,1,0,0,0,1 @ F,0,0,1,0,0,0,1 @ F,0,0,1,0,0,0,1 @ F,0,1,1,0,3.1906851,0,1 | F,0,0,1,0,0,0,1 @ F,0,0,1,0,0,0,1 @ F,0,0,1,0,0,0,1 @ F,0,1,1,0,3.1906851,0,1 @ F,0,1,1,0,3.1906851,0,1 @ F,0,1,1,0,3.1906851,0,1 @ F,0,0,1,0,0,0,1 @ F,0,0,1,0,0,0,1"
       radius="0"
       unit="px"
       method="auto"
       mode="F"
       chamfer_steps="1"
       flexible="false"
       use_knot_distance="true"
       apply_no_radius="true"
       apply_with_radius="true"
       only_selected="false"
       hide_knots="false" />
    <radialGradient
       id="SVGID_1_-3-2"
       cx="-489.36789"
       cy="84.434166"
       r="64.706802"
       gradientTransform="matrix(0.96794252,0,0,-0.96304834,473.64622,81.004607)"
       gradientUnits="userSpaceOnUse"
       fx="-489.36789"
       fy="84.434166">
      <stop
         offset="0"
         style="stop-color:#00b0ff;stop-opacity:1;"
         id="stop1-6-9" />
      <stop
         offset="1"
         style="stop-color:#156fff;stop-opacity:1;"
         id="stop2-7-1" />
    </radialGradient>
    <inkscape:path-effect
       effect="fillet_chamfer"
       id="path-effect4-7"
       is_visible="true"
       lpeversion="1"
       nodesatellites_param="F,0,1,1,0,3.1906851,0,1 @ F,0,1,1,0,3.1906851,0,1 @ F,0,0,1,0,0,0,1 @ F,0,0,1,0,0,0,1 @ F,0,0,1,0,0,0,1 @ F,0,0,1,0,0,0,1 @ F,0,1,1,0,3.1906851,0,1 | F,0,0,1,0,0,0,1 @ F,0,0,1,0,0,0,1 @ F,0,0,1,0,0,0,1 @ F,0,1,1,0,3.1906851,0,1 @ F,0,1,1,0,3.1906851,0,1 @ F,0,1,1,0,3.1906851,0,1 @ F,0,0,1,0,0,0,1 @ F,0,0,1,0,0,0,1"
       radius="0"
       unit="px"
       method="auto"
       mode="F"
       chamfer_steps="1"
       flexible="false"
       use_knot_distance="true"
       apply_no_radius="true"
       apply_with_radius="true"
       only_selected="false"
       hide_knots="false" />
    <filter
       inkscape:collect="always"
       style="color-interpolation-filters:sRGB"
       id="filter4"
       x="-0.053829499"
       y="-0.053641296"
       width="1.107659"
       height="1.1072826">
      <feGaussianBlur
         inkscape:collect="always"
         stdDeviation="0.78274443"
         id="feGaussianBlur4" />
    </filter>
    <filter
       inkscape:collect="always"
       style="color-interpolation-filters:sRGB"
       id="filter5"
       x="-0.12898718"
       y="-0.12898718"
       width="1.2579744"
       height="1.2579744">
      <feGaussianBlur
         inkscape:collect="always"
         stdDeviation="2.6561957"
         id="feGaussianBlur5" />
    </filter>
    <radialGradient
       inkscape:collect="always"
       xlink:href="#linearGradient4"
       id="radialGradient5"
       cx="9.2093544"
       cy="24.43586"
       fx="9.2093544"
       fy="24.43586"
       r="29"
       gradientUnits="userSpaceOnUse"
       gradientTransform="matrix(0,2.1357448,-2.1357448,0,-1.8848089,-19.282403)" />
    <linearGradient
       id="linearGradient4"
       inkscape:collect="always">
      <stop
         style="stop-color:#00e0ff;stop-opacity:1;"
         offset="0"
         id="stop4" />
      <stop
         style="stop-color:#0083ff;stop-opacity:1;"
         offset="1"
         id="stop5" />
    </linearGradient>
  </defs>
  <sodipodi:namedview
     id="namedview4"
     pagecolor="#ffffff"
     bordercolor="#000000"
     borderopacity="0.25"
     inkscape:showpageshadow="2"
     inkscape:pageopacity="0.0"
     inkscape:pagecheckerboard="0"
     inkscape:deskcolor="#d1d1d1"
     inkscape:zoom="14.674561"
     inkscape:cx="26.167734"
     inkscape:cy="35.026602"
     inkscape:current-layer="svg4" />
  <g
     id="g2"
     transform="translate(60.905143,6.1824238)">
    <circle
       style="fill:url(#radialGradient5);stroke-width:0.872162"
       cx="-28.905144"
       cy="25.817575"
       r="25.292706"
       id="circle2" />
    <circle
       style="fill:none;stroke:#000000;stroke-width:0.3;stroke-dasharray:none;stroke-opacity:1;filter:url(#filter5)"
       cx="-28.905144"
       cy="25.817575"
       r="25.292706"
       id="circle2-5" />
  </g>
  <g
     id="g1"
     transform="matrix(0.9131739,0,0,0.9131739,2.7784352,2.7784353)">
    <path
       style="fill:#ffffff"
       d="m 20.054605,14.529014 -6.10921,7.941972 A 1.5710981,1.5710981 63.784296 0 0 15.190685,25 H 19 v 22.377382 c -0.05464,3.920914 6.054642,3.920914 6,0 V 25 h 3.809315 a 1.5710981,1.5710981 116.2157 0 0 1.24529,-2.529014 l -6.10921,-7.941972 a 2.4543732,2.4543732 180 0 0 -3.89079,0 z M 42,13.618945 c -1.51366,0 -3.02732,0.980949 -3,2.941406 V 39 h -3.809315 a 1.5710981,1.5710981 116.2157 0 0 -1.24529,2.529014 l 6.10921,7.941972 a 2.4543732,2.4543732 0 0 0 3.89079,0 l 6.10921,-7.941972 A 1.5710981,1.5710981 63.784296 0 0 48.809315,39 H 45 V 16.560351 c 0.02732,-1.960457 -1.48634,-2.941406 -3,-2.941406 z"
       id="path3-9"
       inkscape:path-effect="#path-effect4"
       inkscape:original-d="M 22,12 12,25 h 7 v 22.377382 c -0.05464,3.920914 6.054642,3.920914 6,0 V 25 h 7 z m 20,1.618945 c -1.51366,0 -3.02732,0.980949 -3,2.941406 V 39 H 32 L 42,52 52,39 H 45 V 16.560351 c 0.02732,-1.960457 -1.48634,-2.941406 -3,-2.941406 z"
       sodipodi:nodetypes="ccccccccscccccccs" />
    <path
       style="fill:none;stroke:#0025ff;stroke-width:0.2;stroke-dasharray:none;stroke-opacity:1;filter:url(#filter4)"
       d="m 20.054605,14.529014 -6.10921,7.941972 A 1.5710981,1.5710981 63.784296 0 0 15.190685,25 H 19 v 22.377382 c -0.05464,3.920914 6.054642,3.920914 6,0 V 25 h 3.809315 a 1.5710981,1.5710981 116.2157 0 0 1.24529,-2.529014 l -6.10921,-7.941972 a 2.4543732,2.4543732 180 0 0 -3.89079,0 z M 42,13.618945 c -1.51366,0 -3.02732,0.980949 -3,2.941406 V 39 h -3.809315 a 1.5710981,1.5710981 116.2157 0 0 -1.24529,2.529014 l 6.10921,7.941972 a 2.4543732,2.4543732 0 0 0 3.89079,0 l 6.10921,-7.941972 A 1.5710981,1.5710981 63.784296 0 0 48.809315,39 H 45 V 16.560351 c 0.02732,-1.960457 -1.48634,-2.941406 -3,-2.941406 z"
       id="path3-9-6"
       inkscape:path-effect="#path-effect4-7"
       inkscape:original-d="M 22,12 12,25 h 7 v 22.377382 c -0.05464,3.920914 6.054642,3.920914 6,0 V 25 h 7 z m 20,1.618945 c -1.51366,0 -3.02732,0.980949 -3,2.941406 V 39 H 32 L 42,52 52,39 H 45 V 16.560351 c 0.02732,-1.960457 -1.48634,-2.941406 -3,-2.941406 z"
       sodipodi:nodetypes="ccccccccscccccccs" />
  </g>
</svg>
